<svg version="1.1" id="Layer_1" xmlns="http://www.w3.org/2000/svg" xmlns:xlink="http://www.w3.org/1999/xlink" x="0px" y="0px"
	 width="100%" viewBox="0 0 586 568" enable-background="new 0 0 586 568" xml:space="preserve">
<path fill="#F7F7F7" opacity="1.000000" stroke="none" 
	d="
M328.000000,569.000000 
	C218.666672,569.000000 109.833336,569.000000 1.000000,569.000000 
	C1.000000,379.666656 1.000000,190.333328 1.000000,1.000000 
	C196.333328,1.000000 391.666656,1.000000 587.000000,1.000000 
	C587.000000,190.333328 587.000000,379.666656 587.000000,569.000000 
	C500.833344,569.000000 414.666656,569.000000 328.000000,569.000000 
M77.899063,449.709167 
	C79.713196,450.532990 81.514977,451.385406 83.343384,452.176239 
	C104.982132,461.535583 128.024170,464.339020 151.149704,464.762299 
	C202.955994,465.710541 254.782730,465.912964 306.599243,465.764709 
	C329.898010,465.698059 353.199066,464.184174 376.074158,458.980225 
	C412.563385,450.679138 436.573547,429.059784 444.867004,392.234558 
	C448.612640,375.603058 451.298279,358.405762 451.674164,341.403473 
	C452.815826,289.768219 452.908447,238.101990 452.765320,186.449615 
	C452.700745,163.147034 451.174835,139.846329 445.983734,116.969246 
	C437.755524,80.707687 416.372223,56.637074 379.782928,48.238674 
	C363.011688,44.389145 345.640106,41.790924 328.466980,41.320541 
	C282.838806,40.070736 237.170959,40.089817 191.518051,39.990513 
	C162.195160,39.926727 132.864609,40.610542 104.050896,47.035847 
	C69.298828,54.785366 45.872360,74.945511 35.932880,109.720886 
	C30.866928,127.445198 28.434252,145.647003 28.178419,163.951584 
	C27.454241,215.766083 27.097000,267.590759 27.226753,319.409882 
	C27.285105,342.713959 28.781258,366.018005 33.995991,388.892090 
	C39.969521,415.094604 52.890697,436.297882 77.899063,449.709167 
z"/>
<path fill="#000000" opacity="1.000000" stroke="none" 
	d="
M77.590103,449.500671 
	C52.890697,436.297882 39.969521,415.094604 33.995991,388.892090 
	C28.781258,366.018005 27.285105,342.713959 27.226753,319.409882 
	C27.097000,267.590759 27.454241,215.766083 28.178419,163.951584 
	C28.434252,145.647003 30.866928,127.445198 35.932880,109.720886 
	C45.872360,74.945511 69.298828,54.785366 104.050896,47.035847 
	C132.864609,40.610542 162.195160,39.926727 191.518051,39.990513 
	C237.170959,40.089817 282.838806,40.070736 328.466980,41.320541 
	C345.640106,41.790924 363.011688,44.389145 379.782928,48.238674 
	C416.372223,56.637074 437.755524,80.707687 445.983734,116.969246 
	C451.174835,139.846329 452.700745,163.147034 452.765320,186.449615 
	C452.908447,238.101990 452.815826,289.768219 451.674164,341.403473 
	C451.298279,358.405762 448.612640,375.603058 444.867004,392.234558 
	C436.573547,429.059784 412.563385,450.679138 376.074158,458.980225 
	C353.199066,464.184174 329.898010,465.698059 306.599243,465.764709 
	C254.782730,465.912964 202.955994,465.710541 151.149704,464.762299 
	C128.024170,464.339020 104.982132,461.535583 83.343384,452.176239 
	C81.514977,451.385406 79.713196,450.532990 77.590103,449.500671 
M156.653168,315.155792 
	C149.939056,322.197235 143.224945,329.238708 136.390045,336.406830 
	C132.077362,331.901459 128.213699,327.777130 124.253593,323.747589 
	C117.279114,316.650848 107.799751,316.119995 101.100311,322.378296 
	C94.283134,328.746582 94.283379,338.517456 101.227379,345.910126 
	C108.521049,353.675079 115.901291,361.358978 123.272263,369.050903 
	C131.820816,377.971710 140.975464,378.009888 149.545578,369.037628 
	C168.976730,348.694672 188.366791,328.312317 207.732574,307.907074 
	C214.897308,300.357727 215.053665,290.301422 208.242279,283.972443 
	C201.524567,277.730499 191.783585,278.403381 184.721741,285.736664 
	C175.484436,295.329041 166.336884,305.007843 156.653168,315.155792 
M165.974518,202.474991 
	C172.403580,195.721176 178.830795,188.965591 185.262192,182.214005 
	C193.071762,174.015625 200.913071,165.847260 208.685623,157.613983 
	C213.204071,152.827713 214.383240,147.148804 212.295807,140.982971 
	C210.245560,134.926941 205.753799,131.438126 199.483093,130.536667 
	C193.599854,129.690918 188.861099,132.001953 184.808929,136.279526 
	C168.780685,153.199310 152.665115,170.036407 137.135437,186.323654 
	C132.890411,182.412338 128.602310,178.708801 124.599449,174.719070 
	C117.352158,167.495560 107.811859,166.757050 101.065262,173.115387 
	C94.127327,179.654053 94.321960,189.344360 101.594780,197.020294 
	C108.809608,204.634979 116.045311,212.230118 123.307518,219.799606 
	C131.861420,228.715469 141.035858,228.653152 149.654953,219.640915 
	C154.948807,214.105560 160.207703,208.536774 165.974518,202.474991 
M249.274551,327.834595 
	C244.892624,333.283966 243.927200,339.289215 247.120834,345.518250 
	C250.193909,351.512115 255.381073,354.285583 262.188995,354.276123 
	C297.150391,354.227478 332.112427,354.338165 367.072540,354.120514 
	C370.510162,354.099060 374.360138,352.897949 377.278564,351.065552 
	C383.172729,347.364777 385.261108,340.404449 383.335785,334.001068 
	C381.214691,326.946503 375.514313,322.332886 367.752991,322.305359 
	C332.459015,322.180176 297.162567,322.084564 261.872345,322.467712 
	C257.825134,322.511658 253.811127,325.615997 249.274551,327.834595 
M253.074219,202.671570 
	C256.255890,203.447952 259.434448,204.884552 262.619659,204.899368 
	C297.413025,205.061096 332.207458,205.027344 367.001495,204.983368 
	C376.761749,204.971039 383.898254,198.218201 383.985046,189.157181 
	C384.073853,179.890106 376.856415,173.022491 366.821808,173.012604 
	C332.027710,172.978363 297.233582,172.983292 262.439453,173.011658 
	C254.487991,173.018127 248.400345,177.127625 246.170654,183.792892 
	C243.872467,190.662949 246.040771,197.004517 253.074219,202.671570 
z"/>
<path fill="#F5F5F5" opacity="1.000000" stroke="none" 
	d="
M156.901947,314.902649 
	C166.336884,305.007843 175.484436,295.329041 184.721741,285.736664 
	C191.783585,278.403381 201.524567,277.730499 208.242279,283.972443 
	C215.053665,290.301422 214.897308,300.357727 207.732574,307.907074 
	C188.366791,328.312317 168.976730,348.694672 149.545578,369.037628 
	C140.975464,378.009888 131.820816,377.971710 123.272263,369.050903 
	C115.901291,361.358978 108.521049,353.675079 101.227379,345.910126 
	C94.283379,338.517456 94.283134,328.746582 101.100311,322.378296 
	C107.799751,316.119995 117.279114,316.650848 124.253593,323.747589 
	C128.213699,327.777130 132.077362,331.901459 136.390045,336.406830 
	C143.224945,329.238708 149.939056,322.197235 156.901947,314.902649 
z"/>
<path fill="#F5F5F5" opacity="1.000000" stroke="none" 
	d="
M165.728409,202.729004 
	C160.207703,208.536774 154.948807,214.105560 149.654953,219.640915 
	C141.035858,228.653152 131.861420,228.715469 123.307518,219.799606 
	C116.045311,212.230118 108.809608,204.634979 101.594780,197.020294 
	C94.321960,189.344360 94.127327,179.654053 101.065262,173.115387 
	C107.811859,166.757050 117.352158,167.495560 124.599449,174.719070 
	C128.602310,178.708801 132.890411,182.412338 137.135437,186.323654 
	C152.665115,170.036407 168.780685,153.199310 184.808929,136.279526 
	C188.861099,132.001953 193.599854,129.690918 199.483093,130.536667 
	C205.753799,131.438126 210.245560,134.926941 212.295807,140.982971 
	C214.383240,147.148804 213.204071,152.827713 208.685623,157.613983 
	C200.913071,165.847260 193.071762,174.015625 185.262192,182.214005 
	C178.830795,188.965591 172.403580,195.721176 165.728409,202.729004 
z"/>
<path fill="#F4F4F4" opacity="1.000000" stroke="none" 
	d="
M249.528137,327.567993 
	C253.811127,325.615997 257.825134,322.511658 261.872345,322.467712 
	C297.162567,322.084564 332.459015,322.180176 367.752991,322.305359 
	C375.514313,322.332886 381.214691,326.946503 383.335785,334.001068 
	C385.261108,340.404449 383.172729,347.364777 377.278564,351.065552 
	C374.360138,352.897949 370.510162,354.099060 367.072540,354.120514 
	C332.112427,354.338165 297.150391,354.227478 262.188995,354.276123 
	C255.381073,354.285583 250.193909,351.512115 247.120834,345.518250 
	C243.927200,339.289215 244.892624,333.283966 249.528137,327.567993 
z"/>
<path fill="#F6F6F6" opacity="1.000000" stroke="none" 
	d="
M252.772491,202.444977 
	C246.040771,197.004517 243.872467,190.662949 246.170654,183.792892 
	C248.400345,177.127625 254.487991,173.018127 262.439453,173.011658 
	C297.233582,172.983292 332.027710,172.978363 366.821808,173.012604 
	C376.856415,173.022491 384.073853,179.890106 383.985046,189.157181 
	C383.898254,198.218201 376.761749,204.971039 367.001495,204.983368 
	C332.207458,205.027344 297.413025,205.061096 262.619659,204.899368 
	C259.434448,204.884552 256.255890,203.447952 252.772491,202.444977 
z"/>
</svg>